<?xml version="1.0" encoding="UTF-8" standalone="no"?>
<svg
   xmlns:dc="http://purl.org/dc/elements/1.1/"
   xmlns:cc="http://creativecommons.org/ns#"
   xmlns:rdf="http://www.w3.org/1999/02/22-rdf-syntax-ns#"
   xmlns:svg="http://www.w3.org/2000/svg"
   xmlns="http://www.w3.org/2000/svg"
   xmlns:sodipodi="http://sodipodi.sourceforge.net/DTD/sodipodi-0.dtd"
   xmlns:inkscape="http://www.inkscape.org/namespaces/inkscape"
   width="130mm"
   height="63mm"
   viewBox="0 0 130 63"
   version="1.1"
   id="svg8"
   inkscape:version="1.0.2 (e86c870879, 2021-01-15)"
   sodipodi:docname="logo.svg"
   inkscape:export-filename="/home/schroeda/work/godthumbs-cake.github.io/docs/assets/logos/logo@1024px.png"
   inkscape:export-xdpi="1023.8173"
   inkscape:export-ydpi="1023.8173">
  <defs
     id="defs2" />
  <sodipodi:namedview
     id="base"
     pagecolor="#ffffff"
     bordercolor="#666666"
     borderopacity="1.0"
     inkscape:pageopacity="0.0"
     inkscape:pageshadow="2"
     inkscape:zoom="11.2"
     inkscape:cx="39.220617"
     inkscape:cy="57.786804"
     inkscape:document-units="mm"
     inkscape:current-layer="layer1"
     inkscape:document-rotation="0"
     showgrid="true"
     inkscape:window-width="1920"
     inkscape:window-height="1008"
     inkscape:window-x="1920"
     inkscape:window-y="28"
     inkscape:window-maximized="1">
    <inkscape:grid
       type="xygrid"
       id="grid10" />
  </sodipodi:namedview>
  <metadata
     id="metadata5">
    <rdf:RDF>
      <cc:Work
         rdf:about="">
        <dc:format>image/svg+xml</dc:format>
        <dc:type
           rdf:resource="http://purl.org/dc/dcmitype/StillImage" />
        <dc:title />
      </cc:Work>
    </rdf:RDF>
  </metadata>
  <g
     inkscape:label="レイヤー 1"
     inkscape:groupmode="layer"
     id="layer1">
    <g
       id="g922"
       transform="translate(-7.9374997,-5.2916663)"
       style="stroke-width:2.8;stroke-miterlimit:4;stroke-dasharray:none">
      <path
         style="fill:none;stroke:#00698d;stroke-width:2.8;stroke-linecap:butt;stroke-linejoin:miter;stroke-miterlimit:4;stroke-dasharray:none;stroke-opacity:1"
         d="m 18.520833,26.458333 23.8125,-7.9375 z"
         id="path12"
         sodipodi:nodetypes="ccc" />
      <path
         style="fill:none;stroke:#00698d;stroke-width:2.8;stroke-linecap:butt;stroke-linejoin:miter;stroke-miterlimit:4;stroke-dasharray:none;stroke-opacity:1"
         d="m 18.520833,26.458333 v 18.520834 l 23.8125,7.9375 V 31.75 H 31.75 42.333333 v 21.166667 l -23.8125,-7.9375 z"
         id="path14"
         sodipodi:nodetypes="ccccccccc" />
    </g>
    <path
       style="fill:none;stroke:#00698d;stroke-width:2.8;stroke-linecap:butt;stroke-linejoin:miter;stroke-miterlimit:4;stroke-dasharray:none;stroke-opacity:1"
       d="M 39.6875,13.229167 V 47.625001 L 47.625,50.270834 58.208332,37.041667 V 18.520834 L 47.625,10.583334 Z"
       id="path16"
       sodipodi:nodetypes="ccccccc" />
    <path
       style="fill:none;stroke:#00698d;stroke-width:2.8;stroke-linecap:butt;stroke-linejoin:miter;stroke-miterlimit:4;stroke-dasharray:none;stroke-opacity:1"
       d="M 58.208333,7.9375007 H 79.375 68.791667 v 47.6250003 0 -47.6250003 z"
       id="path18"
       sodipodi:nodetypes="ccccccc" />
    <g
       id="g926"
       transform="translate(-7.9374997,-5.2916663)"
       style="stroke-width:2.8;stroke-miterlimit:4;stroke-dasharray:none">
      <path
         style="fill:none;stroke:#00698d;stroke-width:2.8;stroke-linecap:butt;stroke-linejoin:miter;stroke-miterlimit:4;stroke-dasharray:none;stroke-opacity:1"
         d="m 89.958333,13.229166 c 8.414565,3.166282 12.827087,6.473911 18.520837,7.9375 z"
         id="path20"
         sodipodi:nodetypes="ccc" />
      <path
         style="fill:none;stroke:#00698d;stroke-width:2.8;stroke-linecap:butt;stroke-linejoin:miter;stroke-miterlimit:4;stroke-dasharray:none;stroke-opacity:1"
         d="m 89.958333,13.229167 v 44.979166 l 18.520837,-7.9375 -18.520837,7.9375 z"
         id="path22"
         sodipodi:nodetypes="ccccc" />
    </g>
    <path
       style="fill:none;stroke:#00698d;stroke-width:2.8;stroke-linecap:butt;stroke-linejoin:miter;stroke-miterlimit:4;stroke-dasharray:none;stroke-opacity:1"
       d="m 103.1875,15.875001 v 29.104166 -15.875 l 15.875,10.583334 -13.22917,-10.583334 13.22917,-7.9375 -15.875,7.9375 z"
       id="path24"
       sodipodi:nodetypes="cccccccc" />
    <path
       style="fill:none;stroke:#00658d;stroke-width:2.8;stroke-linecap:butt;stroke-linejoin:miter;stroke-miterlimit:4;stroke-dasharray:none;stroke-opacity:1"
       d="M 5.2916667,18.520833 58.208332,2.6458336 H 79.374999 L 124.35416,18.520834 127,31.75 124.35416,42.333333 79.374999,60.854166"
       id="path849"
       sodipodi:nodetypes="ccccccc" />
    <path
       style="fill:none;stroke:#00658d;stroke-width:2.8;stroke-linecap:butt;stroke-linejoin:miter;stroke-miterlimit:4;stroke-dasharray:none;stroke-opacity:1"
       d="M 58.208332,60.854166 H 79.374999 Z"
       id="path851" />
    <path
       style="fill:none;stroke:#00698d;stroke-width:2.8;stroke-linecap:butt;stroke-linejoin:miter;stroke-miterlimit:4;stroke-dasharray:none;stroke-opacity:1"
       d="M 5.2916667,18.520833 2.6458333,31.75 5.2916673,42.333334 58.208333,60.854167 5.2916673,42.333334"
       id="path853"
       sodipodi:nodetypes="ccccc" />
    <g
       id="g918"
       transform="matrix(0.91304345,0,0,0.82954548,-143.33514,-0.60132702)"
       style="display:none">
      <path
         style="fill:none;stroke:#000000;stroke-width:0.264583px;stroke-linecap:butt;stroke-linejoin:miter;stroke-opacity:1"
         d="M 177.27083,31.75 C 230.1875,15.875 230.1875,15.875 230.1875,15.875 h 21.16667 l 44.97916,15.875 2.64584,13.229166 -2.64584,10.583333 -44.97916,18.520833"
         id="path849-3" />
      <path
         style="fill:none;stroke:#000000;stroke-width:0.264583px;stroke-linecap:butt;stroke-linejoin:miter;stroke-opacity:1"
         d="M 177.27083,31.750001 174.625,44.979167 177.27083,55.562501 230.1875,74.083334 177.27083,55.562501"
         id="path853-6" />
      <path
         style="fill:none;stroke:#000000;stroke-width:0.264583px;stroke-linecap:butt;stroke-linejoin:miter;stroke-opacity:1"
         d="m 230.1875,74.083333 h 21.16667 z"
         id="path851-7" />
    </g>
    <path
       style="fill:none;stroke:#00658d;stroke-width:0.046;stroke-linecap:butt;stroke-linejoin:miter;stroke-miterlimit:4;stroke-dasharray:none;stroke-opacity:1"
       d="M 5.0270833,17.197917 3.96875,18.25625 Z"
       id="path124"
       sodipodi:nodetypes="ccc" />
    <path
       style="fill:#00698d;stroke:#00658d;stroke-width:0.0155231;stroke-linejoin:round;stroke-miterlimit:4;stroke-dasharray:none;stroke-opacity:1"
       d="M 17.206364,69.938422 15,69.000001 16.074771,66.418084 c 0.502617,-1.207436 2.091353,-0.908142 2.476836,-1.549476 0.385483,-0.641334 0.822592,1.116831 1.007254,1.742783 0.184661,0.625951 0.381079,1.702859 0.547689,2.255315 0.261303,0.866443 0.02077,2.14117 -0.10655,2.133295 -0.08118,-0.005 -1.648449,-0.574503 -2.793636,-1.06158 z"
       id="path949"
       transform="scale(0.26458333)"
       sodipodi:nodetypes="scsssscss" />
    <path
       style="fill:#00698d;stroke:#00658d;stroke-width:0.00410713;stroke-linejoin:round;stroke-miterlimit:4;stroke-dasharray:none;stroke-opacity:1"
       d="m 57.943746,62.177083 -0.58663,-0.119429 0.444655,-0.445116 c 0.244561,-0.244813 0.403561,-0.787879 0.410186,-0.787835 0.0066,4.3e-5 0.09854,0.478381 0.147393,0.643996 0.04886,0.165616 0.124901,0.420712 0.168983,0.566883 0.06914,0.229244 0.07478,0.265431 0.0411,0.263347 -0.02148,-0.0013 -0.303037,-0.05616 -0.625683,-0.121846 z"
       id="path949-3"
       sodipodi:nodetypes="ccsssscsc" />
    <path
       style="fill:#00698d;stroke:#00658d;stroke-width:0.00410713;stroke-linejoin:round;stroke-miterlimit:4;stroke-dasharray:none;stroke-opacity:1"
       d="m 79.374996,61.9125 4e-6,0.264583 -0.141979,-0.829128 c -0.0584,-0.341075 0.403561,-0.787879 0.410186,-0.787835 0.0066,4.3e-5 -0.03913,0.556581 0.02179,0.718145 0.239165,0.634235 0.503753,0.898818 0.280624,0.858289 -0.235589,-0.04279 0.126605,-0.08132 0.223129,-0.224054 -0.02148,-0.0013 -1.054618,0.565374 -0.91667,0.266384 z"
       id="path949-3-6"
       sodipodi:nodetypes="ccsssscsc" />
    <path
       style="fill:#00698d;stroke:#00658d;stroke-width:0.00410713;stroke-linejoin:round;stroke-miterlimit:4;stroke-dasharray:none;stroke-opacity:1"
       d="m 80.9625,8.2020833 10e-6,0.264583 -0.303152,-0.5159755 c -0.175292,-0.2983543 1.857473,-1.29436 1.864093,-1.294316 0.007,4.3e-5 -0.08928,0.720148 -0.02838,0.881712 0.23917,0.634235 -1.006009,0.7418795 -0.961929,0.8880505 0.0691,0.229244 -0.0415,0.04053 0.0551,-0.102208 -0.0215,-0.0013 -0.88655,0.443527 -0.74861,0.144553 z"
       id="path949-3-6-7"
       sodipodi:nodetypes="ccsssscsc" />
    <path
       style="fill:#00698d;stroke:#00658d;stroke-width:0.00410715;stroke-linejoin:round;stroke-miterlimit:4;stroke-dasharray:none;stroke-opacity:1"
       d="M 9.7895833,21.166667 H 9.2604167 l 0.3749549,-0.730342 c 0.1331526,-0.259356 0.5643924,-0.601689 0.5710174,-0.601646 0.0066,4.4e-5 0.214524,0.1934 0.263382,0.359016 0.04886,0.165616 0.124901,0.420715 0.168983,0.566885 0.06914,0.229247 0.242843,0.408171 0.209163,0.406087 -0.02148,-0.0013 -0.795703,0.321147 -0.794605,-0.0081 z"
       id="path949-5"
       sodipodi:nodetypes="ccsssscsc" />
  </g>
</svg>
